<mxfile host="app.diagrams.net" modified="2024-06-05T04:18:15.081Z" agent="Mozilla/5.0 (Windows NT 10.0; Win64; x64) AppleWebKit/537.36 (KHTML, like Gecko) Chrome/126.0.0.0 Safari/537.36 Edg/126.0.0.0" etag="dgqQoKXC_TRSjMWPWHCV" version="24.4.13" type="github">
  <diagram name="Page-1" id="u3ntJAfyLC8SVf5qIWdI">
    <mxGraphModel dx="2393" dy="690" grid="1" gridSize="10" guides="1" tooltips="1" connect="1" arrows="1" fold="1" page="0" pageScale="1" pageWidth="850" pageHeight="1100" math="0" shadow="0">
      <root>
        <mxCell id="0" />
        <mxCell id="1" parent="0" />
        <mxCell id="-VMlSRA08begzYnYpfQn-1" value="&lt;div&gt;Nhân viên quản lý&lt;/div&gt;" style="shape=umlActor;verticalLabelPosition=bottom;verticalAlign=top;html=1;outlineConnect=0;" parent="1" vertex="1">
          <mxGeometry x="-468" y="167" width="30" height="60" as="geometry" />
        </mxCell>
        <mxCell id="-VMlSRA08begzYnYpfQn-2" value="Xem danh sách sản phẩm" style="ellipse;whiteSpace=wrap;html=1;" parent="1" vertex="1">
          <mxGeometry x="-289" y="180" width="190" height="80" as="geometry" />
        </mxCell>
        <mxCell id="-VMlSRA08begzYnYpfQn-4" value="Xem tất cả sách" style="ellipse;whiteSpace=wrap;html=1;" parent="1" vertex="1">
          <mxGeometry x="55" y="170" width="170" height="80" as="geometry" />
        </mxCell>
        <mxCell id="-VMlSRA08begzYnYpfQn-5" value="" style="endArrow=none;html=1;rounded=0;exitX=0.998;exitY=0.351;exitDx=0;exitDy=0;startArrow=block;startFill=0;exitPerimeter=0;" parent="1" source="-VMlSRA08begzYnYpfQn-2" target="-VMlSRA08begzYnYpfQn-4" edge="1">
          <mxGeometry width="50" height="50" relative="1" as="geometry">
            <mxPoint x="-98" y="147" as="sourcePoint" />
            <mxPoint x="-70" y="75" as="targetPoint" />
          </mxGeometry>
        </mxCell>
        <mxCell id="-VMlSRA08begzYnYpfQn-8" value="Tìm kiếm sách" style="ellipse;whiteSpace=wrap;html=1;" parent="1" vertex="1">
          <mxGeometry x="55" y="20" width="170" height="80" as="geometry" />
        </mxCell>
        <mxCell id="-VMlSRA08begzYnYpfQn-9" value="" style="endArrow=none;html=1;rounded=0;exitX=0.5;exitY=0;exitDx=0;exitDy=0;entryX=0.5;entryY=1;entryDx=0;entryDy=0;dashed=1;startArrow=classic;startFill=1;" parent="1" source="-VMlSRA08begzYnYpfQn-4" target="-VMlSRA08begzYnYpfQn-8" edge="1">
          <mxGeometry width="50" height="50" relative="1" as="geometry">
            <mxPoint x="-8" y="407" as="sourcePoint" />
            <mxPoint x="42" y="357" as="targetPoint" />
          </mxGeometry>
        </mxCell>
        <mxCell id="-VMlSRA08begzYnYpfQn-10" value="&amp;lt;&amp;lt;extends&amp;gt;&amp;gt;" style="edgeLabel;html=1;align=center;verticalAlign=middle;resizable=0;points=[];" parent="-VMlSRA08begzYnYpfQn-9" vertex="1" connectable="0">
          <mxGeometry x="-0.0347" y="1" relative="1" as="geometry">
            <mxPoint as="offset" />
          </mxGeometry>
        </mxCell>
        <mxCell id="6JA5m2EOfQR5cMNHUsiw-1" value="Quản lý sách" style="ellipse;whiteSpace=wrap;html=1;" parent="1" vertex="1">
          <mxGeometry x="-264" y="340" width="140" height="70" as="geometry" />
        </mxCell>
        <mxCell id="6JA5m2EOfQR5cMNHUsiw-2" value="" style="edgeStyle=none;html=1;endArrow=none;verticalAlign=bottom;rounded=0;exitX=1;exitY=0.3333333333333333;exitDx=0;exitDy=0;exitPerimeter=0;" parent="1" source="-VMlSRA08begzYnYpfQn-1" target="6JA5m2EOfQR5cMNHUsiw-1" edge="1">
          <mxGeometry width="160" relative="1" as="geometry">
            <mxPoint x="-420" y="387" as="sourcePoint" />
            <mxPoint x="-260" y="387" as="targetPoint" />
          </mxGeometry>
        </mxCell>
        <mxCell id="6JA5m2EOfQR5cMNHUsiw-3" value="Thêm sách" style="ellipse;whiteSpace=wrap;html=1;" parent="1" vertex="1">
          <mxGeometry x="70" y="270" width="140" height="70" as="geometry" />
        </mxCell>
        <mxCell id="6JA5m2EOfQR5cMNHUsiw-7" value="&amp;lt;&amp;lt;include&amp;gt;&amp;gt;" style="edgeStyle=none;html=1;endArrow=open;verticalAlign=bottom;dashed=1;labelBackgroundColor=none;rounded=0;" parent="1" source="6JA5m2EOfQR5cMNHUsiw-1" target="6JA5m2EOfQR5cMNHUsiw-3" edge="1">
          <mxGeometry width="160" relative="1" as="geometry">
            <mxPoint x="-232" y="230" as="sourcePoint" />
            <mxPoint x="-72" y="230" as="targetPoint" />
          </mxGeometry>
        </mxCell>
        <mxCell id="b-xwDgMlkbF6p2s3-o6H-5" value="Khách hàng" style="shape=umlActor;verticalLabelPosition=bottom;verticalAlign=top;html=1;" parent="1" vertex="1">
          <mxGeometry x="-468" y="1000" width="30" height="60" as="geometry" />
        </mxCell>
        <mxCell id="b-xwDgMlkbF6p2s3-o6H-6" value="Xem danh sách các sách" style="ellipse;whiteSpace=wrap;html=1;" parent="1" vertex="1">
          <mxGeometry x="-278" y="980" width="168" height="80" as="geometry" />
        </mxCell>
        <mxCell id="b-xwDgMlkbF6p2s3-o6H-7" value="Xem tất cả sách" style="ellipse;whiteSpace=wrap;html=1;" parent="1" vertex="1">
          <mxGeometry x="82" y="940" width="158" height="80" as="geometry" />
        </mxCell>
        <mxCell id="b-xwDgMlkbF6p2s3-o6H-8" value="Xem sách theo Category" style="ellipse;whiteSpace=wrap;html=1;" parent="1" vertex="1">
          <mxGeometry x="81" y="1040" width="160" height="80" as="geometry" />
        </mxCell>
        <mxCell id="b-xwDgMlkbF6p2s3-o6H-9" value="Lọc sách" style="ellipse;whiteSpace=wrap;html=1;" parent="1" vertex="1">
          <mxGeometry x="82" y="820" width="158" height="80" as="geometry" />
        </mxCell>
        <mxCell id="b-xwDgMlkbF6p2s3-o6H-10" value="Tìm kiếm sách&amp;nbsp;" style="ellipse;whiteSpace=wrap;html=1;" parent="1" vertex="1">
          <mxGeometry x="78" y="1140" width="158" height="80" as="geometry" />
        </mxCell>
        <mxCell id="b-xwDgMlkbF6p2s3-o6H-13" value="" style="endArrow=none;endFill=0;endSize=24;html=1;rounded=0;entryX=0;entryY=0.5;entryDx=0;entryDy=0;exitX=0.984;exitY=0.325;exitDx=0;exitDy=0;exitPerimeter=0;startArrow=block;startFill=0;" parent="1" source="b-xwDgMlkbF6p2s3-o6H-6" target="b-xwDgMlkbF6p2s3-o6H-7" edge="1">
          <mxGeometry width="160" relative="1" as="geometry">
            <mxPoint x="-50" y="850" as="sourcePoint" />
            <mxPoint x="110" y="850" as="targetPoint" />
          </mxGeometry>
        </mxCell>
        <mxCell id="b-xwDgMlkbF6p2s3-o6H-14" value="" style="endArrow=none;endFill=0;endSize=24;html=1;rounded=0;exitX=1;exitY=0.5;exitDx=0;exitDy=0;startArrow=block;startFill=0;entryX=0;entryY=0.5;entryDx=0;entryDy=0;" parent="1" source="b-xwDgMlkbF6p2s3-o6H-6" target="b-xwDgMlkbF6p2s3-o6H-8" edge="1">
          <mxGeometry width="160" relative="1" as="geometry">
            <mxPoint x="-103" y="1016" as="sourcePoint" />
            <mxPoint x="80" y="1040" as="targetPoint" />
          </mxGeometry>
        </mxCell>
        <mxCell id="b-xwDgMlkbF6p2s3-o6H-15" value="" style="endArrow=open;endFill=1;endSize=12;html=1;rounded=0;exitX=0.5;exitY=1;exitDx=0;exitDy=0;entryX=0.5;entryY=0;entryDx=0;entryDy=0;dashed=1;" parent="1" source="b-xwDgMlkbF6p2s3-o6H-9" target="b-xwDgMlkbF6p2s3-o6H-7" edge="1">
          <mxGeometry width="160" relative="1" as="geometry">
            <mxPoint x="-60" y="1030" as="sourcePoint" />
            <mxPoint x="100" y="1030" as="targetPoint" />
          </mxGeometry>
        </mxCell>
        <mxCell id="b-xwDgMlkbF6p2s3-o6H-16" value="&amp;lt;&amp;lt;extends&amp;gt;&amp;gt;" style="edgeLabel;html=1;align=center;verticalAlign=middle;resizable=0;points=[];" parent="b-xwDgMlkbF6p2s3-o6H-15" vertex="1" connectable="0">
          <mxGeometry x="-0.0815" y="-1" relative="1" as="geometry">
            <mxPoint as="offset" />
          </mxGeometry>
        </mxCell>
        <mxCell id="b-xwDgMlkbF6p2s3-o6H-17" value="" style="endArrow=none;endFill=0;endSize=24;html=1;rounded=0;exitX=1;exitY=0.3333333333333333;exitDx=0;exitDy=0;exitPerimeter=0;entryX=0;entryY=0.5;entryDx=0;entryDy=0;" parent="1" source="b-xwDgMlkbF6p2s3-o6H-5" target="b-xwDgMlkbF6p2s3-o6H-6" edge="1">
          <mxGeometry width="160" relative="1" as="geometry">
            <mxPoint x="-300" y="1020" as="sourcePoint" />
            <mxPoint x="-280" y="1020" as="targetPoint" />
          </mxGeometry>
        </mxCell>
        <mxCell id="b-xwDgMlkbF6p2s3-o6H-18" value="" style="endArrow=open;endFill=1;endSize=12;html=1;rounded=0;entryX=0.985;entryY=0.758;entryDx=0;entryDy=0;entryPerimeter=0;exitX=0;exitY=0.5;exitDx=0;exitDy=0;dashed=1;" parent="1" source="b-xwDgMlkbF6p2s3-o6H-10" target="b-xwDgMlkbF6p2s3-o6H-6" edge="1">
          <mxGeometry width="160" relative="1" as="geometry">
            <mxPoint x="-140" y="1190" as="sourcePoint" />
            <mxPoint x="20" y="1190" as="targetPoint" />
          </mxGeometry>
        </mxCell>
        <mxCell id="b-xwDgMlkbF6p2s3-o6H-19" value="&amp;lt;&amp;lt;extends&amp;gt;&amp;gt;" style="edgeLabel;html=1;align=center;verticalAlign=middle;resizable=0;points=[];" parent="b-xwDgMlkbF6p2s3-o6H-18" vertex="1" connectable="0">
          <mxGeometry x="0.0189" relative="1" as="geometry">
            <mxPoint as="offset" />
          </mxGeometry>
        </mxCell>
        <mxCell id="qE0ibQHFshXTXnqlMyk--1" value="Sửa sách" style="ellipse;whiteSpace=wrap;html=1;" parent="1" vertex="1">
          <mxGeometry x="70" y="370" width="140" height="70" as="geometry" />
        </mxCell>
        <mxCell id="qE0ibQHFshXTXnqlMyk--2" value="Xóa sách" style="ellipse;whiteSpace=wrap;html=1;" parent="1" vertex="1">
          <mxGeometry x="70" y="470" width="140" height="70" as="geometry" />
        </mxCell>
        <mxCell id="qE0ibQHFshXTXnqlMyk--7" value="" style="endArrow=open;dashed=1;html=1;rounded=0;entryX=0;entryY=0.5;entryDx=0;entryDy=0;exitX=1;exitY=0.5;exitDx=0;exitDy=0;endFill=0;" parent="1" source="6JA5m2EOfQR5cMNHUsiw-1" target="qE0ibQHFshXTXnqlMyk--1" edge="1">
          <mxGeometry width="50" height="50" relative="1" as="geometry">
            <mxPoint x="-162" y="550" as="sourcePoint" />
            <mxPoint x="-112" y="500" as="targetPoint" />
          </mxGeometry>
        </mxCell>
        <mxCell id="qE0ibQHFshXTXnqlMyk--9" value="&amp;lt;&amp;lt;include&amp;gt;&amp;gt;" style="edgeLabel;html=1;align=center;verticalAlign=middle;resizable=0;points=[];" parent="qE0ibQHFshXTXnqlMyk--7" vertex="1" connectable="0">
          <mxGeometry x="-0.0642" y="2" relative="1" as="geometry">
            <mxPoint as="offset" />
          </mxGeometry>
        </mxCell>
        <mxCell id="qE0ibQHFshXTXnqlMyk--11" value="" style="endArrow=open;dashed=1;html=1;rounded=0;entryX=0.057;entryY=0.286;entryDx=0;entryDy=0;entryPerimeter=0;exitX=1.013;exitY=0.68;exitDx=0;exitDy=0;exitPerimeter=0;endFill=0;" parent="1" source="6JA5m2EOfQR5cMNHUsiw-1" target="qE0ibQHFshXTXnqlMyk--2" edge="1">
          <mxGeometry width="50" height="50" relative="1" as="geometry">
            <mxPoint x="-162" y="550" as="sourcePoint" />
            <mxPoint x="-112" y="500" as="targetPoint" />
          </mxGeometry>
        </mxCell>
        <mxCell id="qE0ibQHFshXTXnqlMyk--12" value="&amp;lt;&amp;lt;include&amp;gt;&amp;gt;" style="edgeLabel;html=1;align=center;verticalAlign=middle;resizable=0;points=[];" parent="qE0ibQHFshXTXnqlMyk--11" vertex="1" connectable="0">
          <mxGeometry x="-0.058" y="2" relative="1" as="geometry">
            <mxPoint as="offset" />
          </mxGeometry>
        </mxCell>
        <mxCell id="qE0ibQHFshXTXnqlMyk--14" value="Thanh toán" style="ellipse;whiteSpace=wrap;html=1;" parent="1" vertex="1">
          <mxGeometry x="-279" y="1220" width="170" height="80" as="geometry" />
        </mxCell>
        <mxCell id="qE0ibQHFshXTXnqlMyk--15" value="Tiền mặt" style="ellipse;whiteSpace=wrap;html=1;" parent="1" vertex="1">
          <mxGeometry x="78" y="1240" width="163" height="80" as="geometry" />
        </mxCell>
        <mxCell id="qE0ibQHFshXTXnqlMyk--16" value="VNPay" style="ellipse;whiteSpace=wrap;html=1;" parent="1" vertex="1">
          <mxGeometry x="82" y="1350" width="163" height="80" as="geometry" />
        </mxCell>
        <mxCell id="qE0ibQHFshXTXnqlMyk--17" value="" style="endArrow=block;endSize=16;endFill=0;html=1;rounded=0;exitX=0;exitY=0.5;exitDx=0;exitDy=0;entryX=0.988;entryY=0.66;entryDx=0;entryDy=0;entryPerimeter=0;" parent="1" source="qE0ibQHFshXTXnqlMyk--16" edge="1" target="qE0ibQHFshXTXnqlMyk--14">
          <mxGeometry width="160" relative="1" as="geometry">
            <mxPoint x="10" y="1520" as="sourcePoint" />
            <mxPoint x="-110" y="1470" as="targetPoint" />
          </mxGeometry>
        </mxCell>
        <mxCell id="qE0ibQHFshXTXnqlMyk--18" value="" style="endArrow=block;endSize=16;endFill=0;html=1;rounded=0;exitX=0.019;exitY=0.716;exitDx=0;exitDy=0;exitPerimeter=0;entryX=1.009;entryY=0.37;entryDx=0;entryDy=0;entryPerimeter=0;" parent="1" source="qE0ibQHFshXTXnqlMyk--15" target="qE0ibQHFshXTXnqlMyk--14" edge="1">
          <mxGeometry width="160" relative="1" as="geometry">
            <mxPoint x="91" y="1520" as="sourcePoint" />
            <mxPoint x="-100" y="1480" as="targetPoint" />
          </mxGeometry>
        </mxCell>
        <mxCell id="qE0ibQHFshXTXnqlMyk--25" value="" style="endArrow=none;html=1;rounded=0;entryX=0;entryY=0.5;entryDx=0;entryDy=0;exitX=1;exitY=0.3333333333333333;exitDx=0;exitDy=0;exitPerimeter=0;" parent="1" source="b-xwDgMlkbF6p2s3-o6H-5" target="qE0ibQHFshXTXnqlMyk--14" edge="1">
          <mxGeometry width="50" height="50" relative="1" as="geometry">
            <mxPoint x="-420" y="1020" as="sourcePoint" />
            <mxPoint x="-268" y="1292" as="targetPoint" />
          </mxGeometry>
        </mxCell>
        <mxCell id="qE0ibQHFshXTXnqlMyk--26" value="Quản lý giỏ hàng" style="ellipse;whiteSpace=wrap;html=1;" parent="1" vertex="1">
          <mxGeometry x="-278" y="740" width="158" height="80" as="geometry" />
        </mxCell>
        <mxCell id="qE0ibQHFshXTXnqlMyk--27" value="" style="endArrow=none;endFill=0;endSize=24;html=1;rounded=0;exitX=1;exitY=0.3333333333333333;exitDx=0;exitDy=0;exitPerimeter=0;entryX=0.092;entryY=0.79;entryDx=0;entryDy=0;entryPerimeter=0;" parent="1" source="b-xwDgMlkbF6p2s3-o6H-5" target="qE0ibQHFshXTXnqlMyk--26" edge="1">
          <mxGeometry width="160" relative="1" as="geometry">
            <mxPoint x="-428" y="1030" as="sourcePoint" />
            <mxPoint x="-268" y="1030" as="targetPoint" />
          </mxGeometry>
        </mxCell>
        <mxCell id="qE0ibQHFshXTXnqlMyk--28" value="Xóa sản phẩm khỏi giỏ hàng" style="ellipse;whiteSpace=wrap;html=1;" parent="1" vertex="1">
          <mxGeometry x="82" y="680" width="158" height="80" as="geometry" />
        </mxCell>
        <mxCell id="qE0ibQHFshXTXnqlMyk--29" value="" style="endArrow=open;html=1;rounded=0;entryX=0;entryY=0.5;entryDx=0;entryDy=0;exitX=1;exitY=0.5;exitDx=0;exitDy=0;dashed=1;endFill=0;" parent="1" source="qE0ibQHFshXTXnqlMyk--26" target="qE0ibQHFshXTXnqlMyk--28" edge="1">
          <mxGeometry width="50" height="50" relative="1" as="geometry">
            <mxPoint x="-250" y="890" as="sourcePoint" />
            <mxPoint x="-200" y="840" as="targetPoint" />
          </mxGeometry>
        </mxCell>
        <mxCell id="qE0ibQHFshXTXnqlMyk--30" value="&amp;lt;&amp;lt;include&amp;gt;&amp;gt;" style="edgeLabel;html=1;align=center;verticalAlign=middle;resizable=0;points=[];" parent="qE0ibQHFshXTXnqlMyk--29" vertex="1" connectable="0">
          <mxGeometry x="-0.2853" y="-4" relative="1" as="geometry">
            <mxPoint x="1" as="offset" />
          </mxGeometry>
        </mxCell>
        <mxCell id="Ypi5s6JBOBEy7CImBllw-2" value="Thêm sản phẩm vào giỏ hàng" style="ellipse;whiteSpace=wrap;html=1;" vertex="1" parent="1">
          <mxGeometry x="81" y="580" width="158" height="80" as="geometry" />
        </mxCell>
        <mxCell id="Ypi5s6JBOBEy7CImBllw-3" value="" style="endArrow=open;dashed=1;html=1;rounded=0;entryX=0;entryY=0.5;entryDx=0;entryDy=0;exitX=0.981;exitY=0.265;exitDx=0;exitDy=0;exitPerimeter=0;endFill=0;" edge="1" parent="1" source="qE0ibQHFshXTXnqlMyk--26" target="Ypi5s6JBOBEy7CImBllw-2">
          <mxGeometry width="50" height="50" relative="1" as="geometry">
            <mxPoint x="-210" y="710" as="sourcePoint" />
            <mxPoint x="-160" y="660" as="targetPoint" />
          </mxGeometry>
        </mxCell>
        <mxCell id="Ypi5s6JBOBEy7CImBllw-5" value="&amp;lt;&amp;lt;include&amp;gt;&amp;gt;" style="edgeLabel;html=1;align=center;verticalAlign=middle;resizable=0;points=[];" vertex="1" connectable="0" parent="Ypi5s6JBOBEy7CImBllw-3">
          <mxGeometry x="-0.0897" y="4" relative="1" as="geometry">
            <mxPoint as="offset" />
          </mxGeometry>
        </mxCell>
        <mxCell id="Ypi5s6JBOBEy7CImBllw-6" value="Người dùng hệ thống" style="shape=umlActor;verticalLabelPosition=bottom;verticalAlign=top;html=1;outlineConnect=0;" vertex="1" parent="1">
          <mxGeometry x="-460" y="1670" width="30" height="60" as="geometry" />
        </mxCell>
        <mxCell id="Ypi5s6JBOBEy7CImBllw-7" value="Đăng nhập" style="ellipse;whiteSpace=wrap;html=1;" vertex="1" parent="1">
          <mxGeometry x="-280" y="1620" width="136" height="60" as="geometry" />
        </mxCell>
        <mxCell id="Ypi5s6JBOBEy7CImBllw-8" value="Đăng ký" style="ellipse;whiteSpace=wrap;html=1;" vertex="1" parent="1">
          <mxGeometry x="-278" y="1700" width="136" height="60" as="geometry" />
        </mxCell>
        <mxCell id="Ypi5s6JBOBEy7CImBllw-9" value="Đăng xuất" style="ellipse;whiteSpace=wrap;html=1;" vertex="1" parent="1">
          <mxGeometry x="-278" y="1780" width="136" height="60" as="geometry" />
        </mxCell>
        <mxCell id="Ypi5s6JBOBEy7CImBllw-10" value="Quên mật khẩu" style="ellipse;whiteSpace=wrap;html=1;" vertex="1" parent="1">
          <mxGeometry x="-282" y="1530" width="140" height="60" as="geometry" />
        </mxCell>
        <mxCell id="Ypi5s6JBOBEy7CImBllw-11" value="" style="endArrow=none;html=1;rounded=0;entryX=0;entryY=0.5;entryDx=0;entryDy=0;exitX=1;exitY=0.3333333333333333;exitDx=0;exitDy=0;exitPerimeter=0;" edge="1" parent="1" source="Ypi5s6JBOBEy7CImBllw-6" target="Ypi5s6JBOBEy7CImBllw-10">
          <mxGeometry width="50" height="50" relative="1" as="geometry">
            <mxPoint x="-560" y="1550" as="sourcePoint" />
            <mxPoint x="-510" y="1500" as="targetPoint" />
          </mxGeometry>
        </mxCell>
        <mxCell id="Ypi5s6JBOBEy7CImBllw-12" value="" style="endArrow=none;html=1;rounded=0;entryX=0;entryY=0.5;entryDx=0;entryDy=0;exitX=1;exitY=0.3333333333333333;exitDx=0;exitDy=0;exitPerimeter=0;" edge="1" parent="1" source="Ypi5s6JBOBEy7CImBllw-6" target="Ypi5s6JBOBEy7CImBllw-7">
          <mxGeometry width="50" height="50" relative="1" as="geometry">
            <mxPoint x="-560" y="1550" as="sourcePoint" />
            <mxPoint x="-510" y="1500" as="targetPoint" />
          </mxGeometry>
        </mxCell>
        <mxCell id="Ypi5s6JBOBEy7CImBllw-15" value="" style="endArrow=none;html=1;rounded=0;entryX=0;entryY=0.5;entryDx=0;entryDy=0;exitX=1;exitY=0.3333333333333333;exitDx=0;exitDy=0;exitPerimeter=0;" edge="1" parent="1" source="Ypi5s6JBOBEy7CImBllw-6" target="Ypi5s6JBOBEy7CImBllw-8">
          <mxGeometry width="50" height="50" relative="1" as="geometry">
            <mxPoint x="-560" y="1550" as="sourcePoint" />
            <mxPoint x="-510" y="1500" as="targetPoint" />
          </mxGeometry>
        </mxCell>
        <mxCell id="Ypi5s6JBOBEy7CImBllw-16" value="" style="endArrow=none;html=1;rounded=0;entryX=0;entryY=0.5;entryDx=0;entryDy=0;exitX=1;exitY=0.3333333333333333;exitDx=0;exitDy=0;exitPerimeter=0;" edge="1" parent="1" source="Ypi5s6JBOBEy7CImBllw-6" target="Ypi5s6JBOBEy7CImBllw-9">
          <mxGeometry width="50" height="50" relative="1" as="geometry">
            <mxPoint x="-560" y="1550" as="sourcePoint" />
            <mxPoint x="-510" y="1500" as="targetPoint" />
          </mxGeometry>
        </mxCell>
        <mxCell id="Ypi5s6JBOBEy7CImBllw-18" value="" style="endArrow=none;html=1;rounded=0;entryX=0;entryY=0.5;entryDx=0;entryDy=0;exitX=1;exitY=0.3333333333333333;exitDx=0;exitDy=0;exitPerimeter=0;" edge="1" parent="1" source="-VMlSRA08begzYnYpfQn-1" target="-VMlSRA08begzYnYpfQn-2">
          <mxGeometry width="50" height="50" relative="1" as="geometry">
            <mxPoint x="-750" y="530" as="sourcePoint" />
            <mxPoint x="-700" y="480" as="targetPoint" />
          </mxGeometry>
        </mxCell>
      </root>
    </mxGraphModel>
  </diagram>
</mxfile>
